<?xml version="1.0" encoding="UTF-8" standalone="no"?>
<!-- Created with Inkscape (http://www.inkscape.org/) -->

<svg
        xmlns:dc="http://purl.org/dc/elements/1.1/"
        xmlns:cc="http://creativecommons.org/ns#"
        xmlns:rdf="http://www.w3.org/1999/02/22-rdf-syntax-ns#"
        xmlns:sodipodi="http://sodipodi.sourceforge.net/DTD/sodipodi-0.dtd"
        xmlns:inkscape="http://www.inkscape.org/namespaces/inkscape"
        xmlns="http://www.w3.org/2000/svg"
        width="1024"
        height="1024"
        viewBox="0 0 1024 1024"
        id="svg2"
        version="1.1"
        inkscape:version="0.91 r13725"
        inkscape:export-filename="/home/mojtab23/Desktop/energy drink/key.png"
        inkscape:export-xdpi="92"
        inkscape:export-ydpi="92"
        sodipodi:docname="key.svg">
    <defs
            id="defs4"/>
    <sodipodi:namedview
            id="base"
            pagecolor="#ffffff"
            bordercolor="#666666"
            borderopacity="1.0"
            inkscape:pageopacity="0.0"
            inkscape:pageshadow="2"
            inkscape:zoom="0.175"
            inkscape:cx="980.31607"
            inkscape:cy="372.39657"
            inkscape:document-units="px"
            inkscape:current-layer="g3458"
            showgrid="true"
            inkscape:snap-grids="true"
            inkscape:window-width="1360"
            inkscape:window-height="713"
            inkscape:window-x="0"
            inkscape:window-y="27"
            inkscape:window-maximized="1"
            units="px">
        <inkscape:grid
                type="xygrid"
                id="grid3472"/>
    </sodipodi:namedview>
    <metadata
            id="metadata7">
        <rdf:RDF>
            <cc:Work
                    rdf:about="">
                <dc:format>image/svg+xml</dc:format>
                <dc:type
                        rdf:resource="http://purl.org/dc/dcmitype/StillImage"/>
                <dc:title></dc:title>
            </cc:Work>
        </rdf:RDF>
    </metadata>
    <g
            inkscape:label="Layer 1"
            inkscape:groupmode="layer"
            id="layer1"
            transform="translate(0,-28.362161)">
        <g
                id="g3458"
                transform="matrix(1,0,0,-1,34.428573,1010.6479)">
            <path
                    id="path3460"
                    d="m 260.84414,894.92867 -0.17243,-24.69381 c 0,0 -29.18984,-0.12419 -31.88736,-0.0992 -15.68732,0.14543 -15.68732,-23.54477 0.21808,-23.67336 2.61323,-0.0215 31.76764,0.0187 31.76764,0.0187 l -0.0348,-25.17606 -80.63765,0.0356 0,-474.43054 c 17.89926,34.21919 48.95977,53.17136 85.28477,53.17136 48.43332,0 81.07317,-32.63984 81.07317,-80.54673 0,-40.53658 -23.16376,-60.54165 -48.43333,-74.75578 l 48.43333,-77.38803 c 3.1587,-4.21159 8.94964,-5.79094 14.21412,-5.79094 10.52899,0 16.84638,6.31739 16.84638,16.84637 l 29.48116,-1.57934 c -1.57935,-24.21667 -21.58442,-45.27464 -46.85398,-45.27464 -15.26702,0 -32.1134,7.89674 -40.01014,22.11087 l -50.53912,83.17897 -89.49636,0 0,-105.28984 -28.95471,0 0,789.90514 c 0,0 0.56216,22.1328 14.09864,22.2969 15.68335,0.1901 14.85607,-22.2969 14.85607,-22.2969 l 0,-26.44874 51.7601,-0.0599 0,10.67068 c -0.0944,28.78855 28.79383,28.78855 28.92001,-0.0599 m -79.62721,-641.34229 61.0681,0 c 18.42573,0 30.53406,2.1058 41.58948,6.84384 22.11087,9.47609 35.2721,26.84892 35.2721,50.53912 0,29.48116 -20.53152,51.59203 -54.75071,51.59203 -36.85145,0 -64.75326,-25.26957 -77.38803,-68.96484 -3.68514,-13.16124 -5.79094,-26.32247 -5.79094,-40.01015 z"
                    inkscape:connector-curvature="0"
                    style="fill:currentColor"
                    sodipodi:nodetypes="ccssccccssccsccsccccccsccccccsssscc"/>
            <g
                    id="g3476"
                    transform="matrix(0.91130368,0,0,0.91130368,414.67239,51.590561)"/>
            <g
                    id="g3490"
                    transform="matrix(0.48506445,0,0,0.48506445,390.66408,135.58413)">
                <path
                        id="path3492"
                        d="M 421,76 440,45 C 389,12 330,-9 260,-9 107,-9 39,92 39,229 c 0,130 62,276 217,276 98,0 175,-57 175,-150 0,-98 -84,-150 -218,-150 L 85,205 C 96,95 151,30 260,30 c 63,0 112,21 161,46 z m -338,168 130,0 c 98,0 175,29 175,112 0,77 -65,113 -129,113 C 128,469 80,327 83,244 Z"
                        inkscape:connector-curvature="0"
                        style="fill:currentColor"/>
            </g>
            <g
                    id="g3504"
                    transform="matrix(0.5018291,0,0,0.5018291,586.32131,133.37574)">
                <path
                        id="path3506"
                        d="m 30,467 23,35 c 41,-32 73,-63 73,-111 l 0,-230 c 0,-84 39,-129 119,-129 72,0 117,34 160,86 15,22 15,35 16,50 l 0,329 41,0 0,-622 c 0,-108 -60,-165 -144,-165 -95,0 -143,74 -143,152 0,53 22,121 75,130 C 140,-7 84,41 84,135 l 0,256 c 0,26 -34,60 -54,76 z M 422,70 399,49 C 382,33 365,21 347,12 l -51,-27 c -53,-28 -82,-63 -82,-121 0,-63 38,-114 103,-114 65,0 105,51 105,121 l 0,199 z"
                        inkscape:connector-curvature="0"
                        style="fill:currentColor"/>
            </g>
        </g>
    </g>
</svg>
