<?xml version="1.0" encoding="UTF-8" standalone="no"?>
<svg
        xmlns:dc="http://purl.org/dc/elements/1.1/"
        xmlns:cc="http://creativecommons.org/ns#"
        xmlns:rdf="http://www.w3.org/1999/02/22-rdf-syntax-ns#"
        xmlns:sodipodi="http://sodipodi.sourceforge.net/DTD/sodipodi-0.dtd"
        xmlns:inkscape="http://www.inkscape.org/namespaces/inkscape"
        xmlns="http://www.w3.org/2000/svg"
        version="1.1"
        viewBox="0 -200 1024 1024"
        id="svg2"
        inkscape:version="0.91 r13725"
        sodipodi:docname="V.svg"
        width="200"
        height="200"
        inkscape:export-filename="/home/mojtab23/Desktop/energy drink/V.png"
        inkscape:export-xdpi="90"
        inkscape:export-ydpi="90">
    <metadata
            id="metadata12">
        <rdf:RDF>
            <cc:Work
                    rdf:about="">
                <dc:format>image/svg+xml</dc:format>
                <dc:type
                        rdf:resource="http://purl.org/dc/dcmitype/StillImage"/>
                <dc:title></dc:title>
            </cc:Work>
        </rdf:RDF>
    </metadata>
    <defs
            id="defs10"/>
    <sodipodi:namedview
            pagecolor="#ffffff"
            bordercolor="#666666"
            borderopacity="1"
            objecttolerance="10"
            gridtolerance="10"
            guidetolerance="10"
            inkscape:pageopacity="0"
            inkscape:pageshadow="2"
            inkscape:window-width="1360"
            inkscape:window-height="713"
            id="namedview8"
            showgrid="false"
            inkscape:zoom="0.3337544"
            inkscape:cx="616.41072"
            inkscape:cy="484.04347"
            inkscape:window-x="0"
            inkscape:window-y="27"
            inkscape:window-maximized="1"
            inkscape:current-layer="svg2">
        <inkscape:grid
                type="xygrid"
                id="grid4152"/>
    </sodipodi:namedview>
    <g
            id="g4155"
            transform="matrix(1.1708368,0,0,1.1708368,19.146865,-236.19763)">
        <g
                style="fill:#000000"
                id="g4"
                transform="matrix(1,0,0,-1,0,800)">
            <path
                    style="fill:#000000"
                    id="path6"
                    d="M 835,574 755,574 482,-4 368,-4 95,574 l -80,0 0,106 334,0 0,-106 -117,0 193,-418 193,418 -117,0 0,106 334,0 0,-106 z"
                    inkscape:connector-curvature="0"/>
        </g>
        <g
                style="fill:#000000"
                transform="matrix(1,0,0,-1,-360.16993,893.22053)"
                id="g3340">
            <path
                    inkscape:connector-curvature="0"
                    id="path3342"
                    transform="matrix(1,0,0,-1,-512.71187,1078.3898)"
                    d="m 1149.373,441.85742 148.5079,321.64063 148.5097,-321.64063 -297.0176,0 z m 148.5079,44.3711 c 30.6733,-9.8e-4 55.5387,24.86379 55.539,55.5371 -0.029,21.73376 -12.7322,41.45334 -32.5097,50.46485 l -0.1622,37.33203 c -1.5283,11.56662 -11.3298,21.89123 -22.9765,21.90039 -11.6412,-0.016 -21.4355,-8.73158 -22.8594,-22.33789 l -0.059,-36.88086 c -19.7816,-9.01339 -32.4877,-28.74023 -32.5117,-50.47852 3e-4,-30.67231 24.8668,-55.53668 55.5391,-55.5371 z"
                    style="fill:#000000"/>
        </g>
    </g>
</svg>
